# This file is brought to you by Roblox Corporation
# Generated by Roblox Studio

mtllib Shelf.mtl

g Union1

v 46.6372 8.51019 51.6661 
v 46.7142 8.51018 51.6661 
v 46.6364 2.05018 51.6653 
v 46.6372 8.51 53.1361 
v 46.7134 2.05017 51.6653 
v 46.6364 2.05 53.1353 
v 46.7142 8.50999 53.1361 
v 46.7134 2.04999 53.1353 
v 42.6962 8.51066 51.6661 
v 42.7732 8.51065 51.6661 
v 42.6955 2.05066 51.6653 
v 42.6962 8.51048 53.1361 
v 42.7725 2.05065 51.6653 
v 42.6955 2.05048 53.1353 
v 42.7732 8.51047 53.1361 
v 42.7725 2.05047 53.1353 
v 46.6372 8.51019 51.6661 
v 46.6372 8.51019 51.6661 
v 46.7142 8.51018 51.6661 
v 46.7142 8.51018 51.6661 
v 46.6364 2.05018 51.6653 
v 46.6364 2.05018 51.6653 
v 46.6372 8.51 53.1361 
v 46.6372 8.51 53.1361 
v 46.7134 2.05017 51.6653 
v 46.7134 2.05017 51.6653 
v 46.6364 2.05 53.1353 
v 46.6364 2.05 53.1353 
v 46.7142 8.50999 53.1361 
v 46.7142 8.50999 53.1361 
v 46.7134 2.04999 53.1353 
v 46.7134 2.04999 53.1353 
v 42.6962 8.51066 51.6661 
v 42.6962 8.51066 51.6661 
v 42.7732 8.51065 51.6661 
v 42.7732 8.51065 51.6661 
v 42.6955 2.05066 51.6653 
v 42.6955 2.05066 51.6653 
v 42.6962 8.51048 53.1361 
v 42.6962 8.51048 53.1361 
v 42.7725 2.05065 51.6653 
v 42.7725 2.05065 51.6653 
v 42.6955 2.05048 53.1353 
v 42.6955 2.05048 53.1353 
v 42.7732 8.51047 53.1361 
v 42.7732 8.51047 53.1361 
v 42.7725 2.05047 53.1353 
v 42.7725 2.05047 53.1353 

vn 0 0 -1 
vn 0 0 -1 
vn 0 0 -1 
vn 0 1 0 
vn 0 0 -1 
vn -1 0 0 
vn 0 1 0 
vn 0 -1 0 
vn 0 0 -1 
vn 0 0 -1 
vn 0 0 -1 
vn 0 1 0 
vn 0 0 -1 
vn -1 0 0 
vn 0 1 0 
vn 0 -1 0 
vn 0 1 0 
vn -1 0 0 
vn 1 0 0 
vn 0 1 0 
vn -1 0 0 
vn 0 -1 0 
vn 0 0 1 
vn -1 0 0 
vn 0 -1 0 
vn 1 0 0 
vn 0 0 1 
vn 0 -1 0 
vn 1 0 0 
vn 0 0 1 
vn 0 0 1 
vn 1 0 0 
vn 0 1 0 
vn -1 0 0 
vn 1 0 0 
vn 0 1 0 
vn -1 0 0 
vn 0 -1 0 
vn 0 0 1 
vn -1 0 0 
vn 0 -1 0 
vn 1 0 0 
vn 0 0 1 
vn 0 -1 0 
vn 1 0 0 
vn 0 0 1 
vn 0 0 1 
vn 1 0 0 

vt 2.51303 4.41081 
vt 2.43603 4.41081 
vt 2.51303 -2.04919 
vt 3.20953 1.14231 
vt 2.43603 -2.04919 
vt 3.20953 -2.04919 
vt 3.20953 1.21931 
vt 1.73953 1.21931 
vt 6.45401 4.41081 
vt 6.37701 4.41081 
vt 6.45401 -2.04919 
vt 3.20954 -2.79867 
vt 6.37701 -2.04919 
vt 3.20954 -2.04919 
vt 3.20954 -2.72167 
vt 1.73953 -2.72167 
vt 1.73953 1.14231 
vt 1.73953 4.41081 
vt 3.20953 4.41081 
vt 1.73953 1.21931 
vt 1.73953 -2.04919 
vt 3.20953 1.14231 
vt 2.43603 4.41081 
vt 3.20953 4.41081 
vt 3.20953 1.21931 
vt 3.20953 -2.04919 
vt 2.43603 -2.04919 
vt 1.73953 1.14231 
vt 1.73953 4.41081 
vt 2.51303 4.41081 
vt 2.51303 -2.04919 
vt 1.73953 -2.04919 
vt 1.73954 -2.79867 
vt 1.73954 4.41081 
vt 3.20953 4.41081 
vt 1.73954 -2.72167 
vt 1.73953 -2.04919 
vt 3.20953 -2.79867 
vt -1.50494 4.41081 
vt 3.20954 4.41081 
vt 3.20953 -2.72167 
vt 3.20953 -2.04919 
vt -1.50494 -2.04919 
vt 1.73953 -2.79867 
vt 1.73953 4.41081 
vt -1.42794 4.41081 
vt -1.42794 -2.04919 
vt 1.73953 -2.04919 

usemtl Union1Mtl

f 1/1/1 2/2/2 3/3/3 
f 20/20/20 17/17/17 4/4/4 
f 3/3/3 2/2/2 5/5/5 
f 18/18/18 21/21/21 6/6/6 
f 24/24/24 18/18/18 6/6/6 
f 20/20/20 4/4/4 7/7/7 
f 26/26/26 19/19/19 29/29/29 
f 22/22/22 25/25/25 8/8/8 
f 28/28/28 22/22/22 8/8/8 
f 23/23/23 27/27/27 31/31/31 
f 30/30/30 23/23/23 31/31/31 
f 26/26/26 29/29/29 32/32/32 
f 9/9/9 10/10/10 11/11/11 
f 36/36/36 33/33/33 12/12/12 
f 11/11/11 10/10/10 13/13/13 
f 34/34/34 37/37/37 14/14/14 
f 40/40/40 34/34/34 14/14/14 
f 36/36/36 12/12/12 15/15/15 
f 42/42/42 35/35/35 45/45/45 
f 38/38/38 41/41/41 16/16/16 
f 44/44/44 38/38/38 16/16/16 
f 39/39/39 43/43/43 47/47/47 
f 46/46/46 39/39/39 47/47/47 
f 42/42/42 45/45/45 48/48/48 

g Union2

v 46.6372 8.51 53.1561 
v 46.6364 2.05 53.1553 
v 46.7142 8.50999 53.1561 
v 46.7134 2.04999 53.1553 
v 42.6962 8.51048 53.1561 
v 42.6955 2.05048 53.1553 
v 42.7732 8.51047 53.1561 
v 42.7725 2.05047 53.1553 

vn 0 0 1 
vn 0 0 1 
vn 0 0 1 
vn 0 0 1 
vn 0 0 1 
vn 0 0 1 
vn 0 0 1 
vn 0 0 1 

vt -0.01925 2.615 
vt -0.0192497 -0.615 
vt 0.01925 2.615 
vt 0.01925 -0.615 
vt -1.98974 2.615 
vt -1.98974 -0.615 
vt -1.95124 2.615 
vt -1.95124 -0.615 

usemtl Union2Mtl

f 49/49/49 50/50/50 52/52/52 
f 51/51/51 49/49/49 52/52/52 
f 53/53/53 54/54/54 56/56/56 
f 55/55/55 53/53/53 56/56/56 

g Union3

v 46.6372 8.53 53.1361 
v 46.7142 8.52999 53.1361 
v 42.6962 8.53048 53.1361 
v 42.7732 8.53047 53.1361 
v 46.6372 8.53019 51.6661 
v 46.7142 8.53018 51.6661 
v 42.6962 8.53066 51.6661 
v 42.7732 8.53065 51.6661 

vn 0 1 0 
vn 0 1 0 
vn 0 1 0 
vn 0 1 0 
vn 0 1 0 
vn 0 1 0 
vn 0 1 0 
vn 0 1 0 

vt 0.3675 0.98075 
vt 0.3675 1.01925 
vt 0.367501 -0.989739 
vt 0.367501 -0.951239 
vt -0.3675 0.98075 
vt -0.3675 1.01925 
vt -0.3675 -0.989739 
vt -0.3675 -0.951239 

usemtl Union2Mtl

f 62/62/62 61/61/61 57/57/57 
f 62/62/62 57/57/57 58/58/58 
f 64/64/64 63/63/63 59/59/59 
f 64/64/64 59/59/59 60/60/60 

g Union4

v 46.7342 8.51018 51.6661 
v 46.7334 2.05017 51.6653 
v 46.7342 8.50999 53.1361 
v 46.7334 2.04999 53.1353 
v 42.7932 8.51065 51.6661 
v 42.7925 2.05065 51.6653 
v 42.7932 8.51047 53.1361 
v 42.7925 2.05047 53.1353 

vn 1 0 0 
vn 1 0 0 
vn 1 0 0 
vn 1 0 0 
vn 1 0 0 
vn 1 0 0 
vn 1 0 0 
vn 1 0 0 

vt 0.3675 2.615 
vt 0.3675 -0.615 
vt -0.3675 2.615 
vt -0.3675 -0.615 
vt 0.3675 2.615 
vt 0.3675 -0.615 
vt -0.367501 2.615 
vt -0.367501 -0.615 

usemtl Union2Mtl

f 66/66/66 65/65/65 67/67/67 
f 66/66/66 67/67/67 68/68/68 
f 70/70/70 69/69/69 71/71/71 
f 70/70/70 71/71/71 72/72/72 

g Union5

v 46.7134 2.02999 53.1353 
v 42.7725 2.03047 53.1353 
v 46.6364 2.03018 51.6653 
v 46.7134 2.03017 51.6653 
v 46.6364 2.03 53.1353 
v 42.6955 2.03066 51.6653 
v 42.7725 2.03065 51.6653 
v 42.6955 2.03048 53.1353 

vn 0 -1 0 
vn 0 -1 0 
vn 0 -1 0 
vn 0 -1 0 
vn 0 -1 0 
vn 0 -1 0 
vn 0 -1 0 
vn 0 -1 0 

vt -0.3675 1.01925 
vt -0.367501 -0.951239 
vt 0.3675 0.98075 
vt 0.3675 1.01925 
vt -0.3675 0.98075 
vt 0.3675 -0.989739 
vt 0.3675 -0.951239 
vt -0.3675 -0.989739 

usemtl Union2Mtl

f 75/75/75 76/76/76 73/73/73 
f 77/77/77 75/75/75 73/73/73 
f 78/78/78 79/79/79 74/74/74 
f 80/80/80 78/78/78 74/74/74 

g Union6

v 46.6372 8.51019 51.6461 
v 46.7142 8.51018 51.6461 
v 46.6364 2.05018 51.6453 
v 46.7134 2.05017 51.6453 
v 42.6962 8.51066 51.6461 
v 42.7732 8.51065 51.6461 
v 42.6955 2.05066 51.6453 
v 42.7725 2.05065 51.6453 

vn 0 0 -1 
vn 0 0 -1 
vn 0 0 -1 
vn 0 0 -1 
vn 0 0 -1 
vn 0 0 -1 
vn 0 0 -1 
vn 0 0 -1 

vt 0.01925 2.615 
vt -0.01925 2.615 
vt 0.01925 -0.615 
vt -0.01925 -0.615 
vt 1.98974 2.615 
vt 1.95124 2.615 
vt 1.98974 -0.615 
vt 1.95124 -0.615 

usemtl Union2Mtl

f 81/81/81 82/82/82 83/83/83 
f 83/83/83 82/82/82 84/84/84 
f 85/85/85 86/86/86 87/87/87 
f 87/87/87 86/86/86 88/88/88 

g Union7

v 46.6164 2.05 53.1353 
v 42.6755 2.05048 53.1353 
v 46.6172 8.51019 51.6661 
v 46.6164 2.05018 51.6653 
v 46.6172 8.51 53.1361 
v 42.6762 8.51066 51.6661 
v 42.6755 2.05066 51.6653 
v 42.6762 8.51048 53.1361 

vn -1 0 0 
vn -1 0 0 
vn -1 0 0 
vn -1 0 0 
vn -1 0 0 
vn -1 0 0 
vn -1 0 0 
vn -1 0 0 

vt 0.3675 -0.615 
vt 0.3675 -0.615 
vt -0.3675 2.615 
vt -0.3675 -0.615 
vt 0.3675 2.615 
vt -0.3675 2.615 
vt -0.3675 -0.615 
vt 0.367501 2.615 

usemtl Union2Mtl

f 91/91/91 92/92/92 89/89/89 
f 93/93/93 91/91/91 89/89/89 
f 94/94/94 95/95/95 90/90/90 
f 96/96/96 94/94/94 90/90/90 

g Union8

v 46.6645 3.19164 53.1081 
v 46.6645 3.11664 53.1081 
v 46.6645 3.19182 51.6681 
v 42.7545 3.19211 53.1081 
v 46.6645 3.11682 51.6681 
v 42.7545 3.19229 51.6681 
v 42.7545 3.11711 53.1081 
v 42.7545 3.11729 51.6681 
v 46.6651 8.23897 53.1087 
v 46.6651 8.16397 53.1087 
v 46.6651 8.23915 51.6687 
v 42.7551 8.23944 53.1087 
v 46.6651 8.16415 51.6687 
v 42.7551 8.23961 51.6687 
v 42.7551 8.16444 53.1087 
v 42.7551 8.16461 51.6687 
v 46.6647 4.97819 53.1083 
v 46.6647 4.90319 53.1083 
v 46.6647 4.97836 51.6683 
v 42.7547 4.97865 53.1083 
v 46.6647 4.90336 51.6683 
v 42.7547 4.97883 51.6683 
v 42.7547 4.90366 53.1083 
v 42.7547 4.90383 51.6683 
v 46.6649 6.51262 53.1085 
v 46.6649 6.43762 53.1085 
v 46.6649 6.5128 51.6685 
v 42.7549 6.51309 53.1085 
v 46.6649 6.4378 51.6685 
v 42.7549 6.51327 51.6685 
v 42.7549 6.43809 53.1085 
v 42.7549 6.43827 51.6685 
v 46.6645 3.19164 53.1081 
v 46.6645 3.19164 53.1081 
v 46.6645 3.11664 53.1081 
v 46.6645 3.11664 53.1081 
v 46.6645 3.19182 51.6681 
v 46.6645 3.19182 51.6681 
v 42.7545 3.19211 53.1081 
v 42.7545 3.19211 53.1081 
v 46.6645 3.11682 51.6681 
v 46.6645 3.11682 51.6681 
v 42.7545 3.19229 51.6681 
v 42.7545 3.19229 51.6681 
v 42.7545 3.11711 53.1081 
v 42.7545 3.11711 53.1081 
v 42.7545 3.11729 51.6681 
v 42.7545 3.11729 51.6681 
v 46.6651 8.23897 53.1087 
v 46.6651 8.23897 53.1087 
v 46.6651 8.16397 53.1087 
v 46.6651 8.16397 53.1087 
v 46.6651 8.23915 51.6687 
v 46.6651 8.23915 51.6687 
v 42.7551 8.23944 53.1087 
v 42.7551 8.23944 53.1087 
v 46.6651 8.16415 51.6687 
v 46.6651 8.16415 51.6687 
v 42.7551 8.23961 51.6687 
v 42.7551 8.23961 51.6687 
v 42.7551 8.16444 53.1087 
v 42.7551 8.16444 53.1087 
v 42.7551 8.16461 51.6687 
v 42.7551 8.16461 51.6687 
v 46.6647 4.97819 53.1083 
v 46.6647 4.97819 53.1083 
v 46.6647 4.90319 53.1083 
v 46.6647 4.90319 53.1083 
v 46.6647 4.97836 51.6683 
v 46.6647 4.97836 51.6683 
v 42.7547 4.97865 53.1083 
v 42.7547 4.97865 53.1083 
v 46.6647 4.90336 51.6683 
v 46.6647 4.90336 51.6683 
v 42.7547 4.97883 51.6683 
v 42.7547 4.97883 51.6683 
v 42.7547 4.90366 53.1083 
v 42.7547 4.90366 53.1083 
v 42.7547 4.90383 51.6683 
v 42.7547 4.90383 51.6683 
v 46.6649 6.51262 53.1085 
v 46.6649 6.51262 53.1085 
v 46.6649 6.43762 53.1085 
v 46.6649 6.43762 53.1085 
v 46.6649 6.5128 51.6685 
v 46.6649 6.5128 51.6685 
v 42.7549 6.51309 53.1085 
v 42.7549 6.51309 53.1085 
v 46.6649 6.4378 51.6685 
v 46.6649 6.4378 51.6685 
v 42.7549 6.51327 51.6685 
v 42.7549 6.51327 51.6685 
v 42.7549 6.43809 53.1085 
v 42.7549 6.43809 53.1085 
v 42.7549 6.43827 51.6685 
v 42.7549 6.43827 51.6685 

vn 1 0 0 
vn 1 0 0 
vn 1 0 0 
vn 0 0 1 
vn 1 0 0 
vn 0 1 0 
vn 0 0 1 
vn 0 0 -1 
vn 1 0 0 
vn 1 0 0 
vn 1 0 0 
vn 0 0 1 
vn 1 0 0 
vn 0 1 0 
vn 0 0 1 
vn 0 0 -1 
vn 1 0 0 
vn 1 0 0 
vn 1 0 0 
vn 0 0 1 
vn 1 0 0 
vn 0 1 0 
vn 0 0 1 
vn 0 0 -1 
vn 1 0 0 
vn 1 0 0 
vn 1 0 0 
vn 0 0 1 
vn 1 0 0 
vn 0 1 0 
vn 0 0 1 
vn 0 0 -1 
vn 0 0 1 
vn 0 1 0 
vn 0 -1 0 
vn 0 0 1 
vn 0 1 0 
vn 0 0 -1 
vn -1 0 0 
vn 0 1 0 
vn 0 0 -1 
vn 0 -1 0 
vn -1 0 0 
vn 0 0 -1 
vn 0 -1 0 
vn -1 0 0 
vn -1 0 0 
vn 0 -1 0 
vn 0 0 1 
vn 0 1 0 
vn 0 -1 0 
vn 0 0 1 
vn 0 1 0 
vn 0 0 -1 
vn -1 0 0 
vn 0 1 0 
vn 0 0 -1 
vn 0 -1 0 
vn -1 0 0 
vn 0 0 -1 
vn 0 -1 0 
vn -1 0 0 
vn -1 0 0 
vn 0 -1 0 
vn 0 0 1 
vn 0 1 0 
vn 0 -1 0 
vn 0 0 1 
vn 0 1 0 
vn 0 0 -1 
vn -1 0 0 
vn 0 1 0 
vn 0 0 -1 
vn 0 -1 0 
vn -1 0 0 
vn 0 0 -1 
vn 0 -1 0 
vn -1 0 0 
vn -1 0 0 
vn 0 -1 0 
vn 0 0 1 
vn 0 1 0 
vn 0 -1 0 
vn 0 0 1 
vn 0 1 0 
vn 0 0 -1 
vn -1 0 0 
vn 0 1 0 
vn 0 0 -1 
vn 0 -1 0 
vn -1 0 0 
vn 0 0 -1 
vn 0 -1 0 
vn -1 0 0 
vn -1 0 0 
vn 0 -1 0 

vt -2.62985 0.401754 
vt -2.70484 0.401754 
vt -2.62985 -1.03825 
vt -0.712345 -0.355747 
vt -2.70484 -1.03825 
vt -0.712345 -1.03825 
vt -0.712345 -0.280747 
vt -4.62234 -0.280747 
vt 2.41748 0.401754 
vt 2.34248 0.401754 
vt 2.41748 -1.03825 
vt -0.712348 -5.40308 
vt 2.34248 -1.03825 
vt -0.712348 -1.03825 
vt -0.712348 -5.32808 
vt -4.62234 -5.32808 
vt -0.843299 0.401754 
vt -0.918299 0.401754 
vt -0.843299 -1.03825 
vt -0.712346 -2.14229 
vt -0.918299 -1.03825 
vt -0.712346 -1.03825 
vt -0.712346 -2.06729 
vt -4.62234 -2.06729 
vt 0.691139 0.401754 
vt 0.616139 0.401754 
vt 0.691139 -1.03825 
vt -0.712347 -3.67673 
vt 0.616139 -1.03825 
vt -0.712347 -1.03825 
vt -0.712347 -3.60173 
vt -4.62234 -3.60173 
vt -4.62234 -0.355747 
vt -4.62234 0.401754 
vt -0.712345 0.401754 
vt -4.62234 -0.280747 
vt -4.62234 -1.03825 
vt -0.712345 -0.355747 
vt -2.70484 0.401753 
vt -0.712345 0.401753 
vt -0.712345 -0.280747 
vt -0.712345 -1.03825 
vt -2.70484 -1.03825 
vt -4.62234 -0.355747 
vt -4.62234 0.401753 
vt -2.62985 0.401753 
vt -2.62985 -1.03825 
vt -4.62234 -1.03825 
vt -4.62235 -5.40308 
vt -4.62235 0.401754 
vt -0.712342 0.401754 
vt -4.62235 -5.32808 
vt -4.62235 -1.03825 
vt -0.712342 -5.40308 
vt -7.75217 0.401753 
vt -0.712348 0.401753 
vt -0.712342 -5.32808 
vt -0.712342 -1.03825 
vt -7.75217 -1.03825 
vt -4.62234 -5.40308 
vt -4.62234 0.401753 
vt -7.67717 0.401753 
vt -7.67717 -1.03825 
vt -4.62234 -1.03825 
vt -4.62235 -2.14229 
vt -4.62235 0.401754 
vt -0.712344 0.401754 
vt -4.62235 -2.06729 
vt -4.62235 -1.03825 
vt -0.712344 -2.14229 
vt -4.49139 0.401753 
vt -0.712346 0.401753 
vt -0.712344 -2.06729 
vt -0.712344 -1.03825 
vt -4.49139 -1.03825 
vt -4.62234 -2.14229 
vt -4.62234 0.401753 
vt -4.41639 0.401753 
vt -4.41639 -1.03825 
vt -4.62234 -1.03825 
vt -4.62235 -3.67673 
vt -4.62235 0.401754 
vt -0.712343 0.401754 
vt -4.62235 -3.60173 
vt -4.62235 -1.03825 
vt -0.712343 -3.67673 
vt -6.02583 0.401753 
vt -0.712347 0.401753 
vt -0.712343 -3.60173 
vt -0.712343 -1.03825 
vt -6.02583 -1.03825 
vt -4.62234 -3.67673 
vt -4.62234 0.401753 
vt -5.95083 0.401753 
vt -5.95083 -1.03825 
vt -4.62234 -1.03825 

usemtl Union1Mtl

f 97/97/97 98/98/98 99/99/99 
f 132/132/132 129/129/129 100/100/100 
f 99/99/99 98/98/98 101/101/101 
f 130/130/130 133/133/133 102/102/102 
f 136/136/136 130/130/130 102/102/102 
f 132/132/132 100/100/100 103/103/103 
f 138/138/138 131/131/131 141/141/141 
f 134/134/134 137/137/137 104/104/104 
f 140/140/140 134/134/134 104/104/104 
f 135/135/135 139/139/139 143/143/143 
f 142/142/142 135/135/135 143/143/143 
f 138/138/138 141/141/141 144/144/144 
f 105/105/105 106/106/106 107/107/107 
f 148/148/148 145/145/145 108/108/108 
f 107/107/107 106/106/106 109/109/109 
f 146/146/146 149/149/149 110/110/110 
f 152/152/152 146/146/146 110/110/110 
f 148/148/148 108/108/108 111/111/111 
f 154/154/154 147/147/147 157/157/157 
f 150/150/150 153/153/153 112/112/112 
f 156/156/156 150/150/150 112/112/112 
f 151/151/151 155/155/155 159/159/159 
f 158/158/158 151/151/151 159/159/159 
f 154/154/154 157/157/157 160/160/160 
f 113/113/113 114/114/114 115/115/115 
f 164/164/164 161/161/161 116/116/116 
f 115/115/115 114/114/114 117/117/117 
f 162/162/162 165/165/165 118/118/118 
f 168/168/168 162/162/162 118/118/118 
f 164/164/164 116/116/116 119/119/119 
f 170/170/170 163/163/163 173/173/173 
f 166/166/166 169/169/169 120/120/120 
f 172/172/172 166/166/166 120/120/120 
f 167/167/167 171/171/171 175/175/175 
f 174/174/174 167/167/167 175/175/175 
f 170/170/170 173/173/173 176/176/176 
f 121/121/121 122/122/122 123/123/123 
f 180/180/180 177/177/177 124/124/124 
f 123/123/123 122/122/122 125/125/125 
f 178/178/178 181/181/181 126/126/126 
f 184/184/184 178/178/178 126/126/126 
f 180/180/180 124/124/124 127/127/127 
f 186/186/186 179/179/179 189/189/189 
f 182/182/182 185/185/185 128/128/128 
f 188/188/188 182/182/182 128/128/128 
f 183/183/183 187/187/187 191/191/191 
f 190/190/190 183/183/183 191/191/191 
f 186/186/186 189/189/189 192/192/192 

g Union9

v 42.7545 3.21229 51.6681 
v 42.7551 8.25961 51.6687 
v 42.7547 4.99883 51.6683 
v 42.7549 6.53327 51.6685 
v 46.6645 3.21164 53.1081 
v 46.6645 3.21182 51.6681 
v 42.7545 3.21211 53.1081 
v 46.6651 8.25897 53.1087 
v 46.6651 8.25915 51.6687 
v 42.7551 8.25944 53.1087 
v 46.6647 4.99819 53.1083 
v 46.6647 4.99836 51.6683 
v 42.7547 4.99865 53.1083 
v 46.6649 6.53262 53.1085 
v 46.6649 6.5328 51.6685 
v 42.7549 6.53309 53.1085 

vn 0 1 0 
vn 0 1 0 
vn 0 1 0 
vn 0 1 0 
vn 0 1 0 
vn 0 1 0 
vn 0 1 0 
vn 0 1 0 
vn 0 1 0 
vn 0 1 0 
vn 0 1 0 
vn 0 1 0 
vn 0 1 0 
vn 0 1 0 
vn 0 1 0 
vn 0 1 0 

vt 0.651667 0.76 
vt 0.651666 0.76 
vt 0.651666 0.76 
vt 0.651666 0.76 
vt -0.651667 1.24 
vt -0.651667 0.76 
vt 0.651667 1.24 
vt -0.651668 1.24 
vt -0.651668 0.76 
vt 0.651666 1.24 
vt -0.651667 1.24 
vt -0.651667 0.76 
vt 0.651666 1.24 
vt -0.651667 1.24 
vt -0.651667 0.76 
vt 0.651666 1.24 

usemtl Union9Mtl

f 197/197/197 198/198/198 193/193/193 
f 199/199/199 197/197/197 193/193/193 
f 200/200/200 201/201/201 194/194/194 
f 202/202/202 200/200/200 194/194/194 
f 203/203/203 204/204/204 195/195/195 
f 205/205/205 203/203/203 195/195/195 
f 206/206/206 207/207/207 196/196/196 
f 208/208/208 206/206/206 196/196/196 

g Union10

v 46.6645 3.09664 53.1081 
v 46.6645 3.09682 51.6681 
v 42.7545 3.09711 53.1081 
v 42.7545 3.09729 51.6681 
v 46.6651 8.14397 53.1087 
v 46.6651 8.14415 51.6687 
v 42.7551 8.14444 53.1087 
v 42.7551 8.14461 51.6687 
v 46.6647 4.88319 53.1083 
v 46.6647 4.88336 51.6683 
v 42.7547 4.88366 53.1083 
v 42.7547 4.88383 51.6683 
v 46.6649 6.41762 53.1085 
v 46.6649 6.4178 51.6685 
v 42.7549 6.41809 53.1085 
v 42.7549 6.41827 51.6685 

vn 0 -1 0 
vn 0 -1 0 
vn 0 -1 0 
vn 0 -1 0 
vn 0 -1 0 
vn 0 -1 0 
vn 0 -1 0 
vn 0 -1 0 
vn 0 -1 0 
vn 0 -1 0 
vn 0 -1 0 
vn 0 -1 0 
vn 0 -1 0 
vn 0 -1 0 
vn 0 -1 0 
vn 0 -1 0 

vt 0.651667 1.24 
vt 0.651667 0.76 
vt -0.651667 1.24 
vt -0.651667 0.76 
vt 0.651668 1.24 
vt 0.651668 0.76 
vt -0.651666 1.24 
vt -0.651666 0.76 
vt 0.651667 1.24 
vt 0.651667 0.76 
vt -0.651666 1.24 
vt -0.651666 0.76 
vt 0.651667 1.24 
vt 0.651667 0.76 
vt -0.651666 1.24 
vt -0.651666 0.76 

usemtl Union9Mtl

f 210/210/210 209/209/209 211/211/211 
f 210/210/210 211/211/211 212/212/212 
f 214/214/214 213/213/213 215/215/215 
f 214/214/214 215/215/215 216/216/216 
f 218/218/218 217/217/217 219/219/219 
f 218/218/218 219/219/219 220/220/220 
f 222/222/222 221/221/221 223/223/223 
f 222/222/222 223/223/223 224/224/224 

g Union11

v 42.7545 3.19211 53.1281 
v 42.7545 3.11711 53.1281 
v 42.7551 8.23944 53.1287 
v 42.7551 8.16444 53.1287 
v 42.7547 4.97865 53.1283 
v 42.7547 4.90366 53.1283 
v 42.7549 6.51309 53.1285 
v 42.7549 6.43809 53.1285 
v 46.6645 3.19164 53.1281 
v 46.6645 3.11664 53.1281 
v 46.6651 8.23897 53.1287 
v 46.6651 8.16397 53.1287 
v 46.6647 4.97819 53.1283 
v 46.6647 4.90319 53.1283 
v 46.6649 6.51262 53.1285 
v 46.6649 6.43762 53.1285 

vn 0 0 1 
vn 0 0 1 
vn 0 0 1 
vn 0 0 1 
vn 0 0 1 
vn 0 0 1 
vn 0 0 1 
vn 0 0 1 
vn 0 0 1 
vn 0 0 1 
vn 0 0 1 
vn 0 0 1 
vn 0 0 1 
vn 0 0 1 
vn 0 0 1 
vn 0 0 1 

vt 0.651667 0.9875 
vt 0.651667 1.0125 
vt 0.651666 -0.694943 
vt 0.651666 -0.669943 
vt 0.651666 0.391984 
vt 0.651666 0.416984 
vt 0.651666 -0.119495 
vt 0.651666 -0.0944946 
vt -0.651667 0.9875 
vt -0.651667 1.0125 
vt -0.651668 -0.694943 
vt -0.651668 -0.669943 
vt -0.651667 0.391985 
vt -0.651667 0.416985 
vt -0.651667 -0.119495 
vt -0.651667 -0.0944946 

usemtl Union9Mtl

f 234/234/234 233/233/233 225/225/225 
f 234/234/234 225/225/225 226/226/226 
f 236/236/236 235/235/235 227/227/227 
f 236/236/236 227/227/227 228/228/228 
f 238/238/238 237/237/237 229/229/229 
f 238/238/238 229/229/229 230/230/230 
f 240/240/240 239/239/239 231/231/231 
f 240/240/240 231/231/231 232/232/232 

g Union12

v 46.6845 3.19164 53.1081 
v 46.6845 3.11664 53.1081 
v 46.6845 3.19182 51.6681 
v 46.6845 3.11682 51.6681 
v 46.6851 8.23897 53.1087 
v 46.6851 8.16397 53.1087 
v 46.6851 8.23915 51.6687 
v 46.6851 8.16415 51.6687 
v 46.6847 4.97819 53.1083 
v 46.6847 4.90319 53.1083 
v 46.6847 4.97836 51.6683 
v 46.6847 4.90336 51.6683 
v 46.6849 6.51262 53.1085 
v 46.6849 6.43762 53.1085 
v 46.6849 6.5128 51.6685 
v 46.6849 6.4378 51.6685 

vn 1 0 0 
vn 1 0 0 
vn 1 0 0 
vn 1 0 0 
vn 1 0 0 
vn 1 0 0 
vn 1 0 0 
vn 1 0 0 
vn 1 0 0 
vn 1 0 0 
vn 1 0 0 
vn 1 0 0 
vn 1 0 0 
vn 1 0 0 
vn 1 0 0 
vn 1 0 0 

vt 0.0125 1.24 
vt -0.0125 1.24 
vt 0.0125 0.76 
vt -0.0125 0.76 
vt 1.69494 1.24 
vt 1.66994 1.24 
vt 1.69494 0.76 
vt 1.66994 0.76 
vt 0.608015 1.24 
vt 0.583015 1.24 
vt 0.608015 0.76 
vt 0.583015 0.76 
vt 1.11949 1.24 
vt 1.09449 1.24 
vt 1.11949 0.76 
vt 1.09449 0.76 

usemtl Union9Mtl

f 241/241/241 242/242/242 243/243/243 
f 243/243/243 242/242/242 244/244/244 
f 245/245/245 246/246/246 247/247/247 
f 247/247/247 246/246/246 248/248/248 
f 249/249/249 250/250/250 251/251/251 
f 251/251/251 250/250/250 252/252/252 
f 253/253/253 254/254/254 255/255/255 
f 255/255/255 254/254/254 256/256/256 

g Union13

v 42.7345 3.19211 53.1081 
v 42.7345 3.19229 51.6681 
v 42.7345 3.11711 53.1081 
v 42.7345 3.11729 51.6681 
v 42.7351 8.23944 53.1087 
v 42.7351 8.23961 51.6687 
v 42.7351 8.16444 53.1087 
v 42.7351 8.16461 51.6687 
v 42.7347 4.97865 53.1083 
v 42.7347 4.97883 51.6683 
v 42.7347 4.90366 53.1083 
v 42.7347 4.90383 51.6683 
v 42.7349 6.51309 53.1085 
v 42.7349 6.51327 51.6685 
v 42.7349 6.43809 53.1085 
v 42.7349 6.43827 51.6685 

vn -1 0 0 
vn -1 0 0 
vn -1 0 0 
vn -1 0 0 
vn -1 0 0 
vn -1 0 0 
vn -1 0 0 
vn -1 0 0 
vn -1 0 0 
vn -1 0 0 
vn -1 0 0 
vn -1 0 0 
vn -1 0 0 
vn -1 0 0 
vn -1 0 0 
vn -1 0 0 

vt -0.0125 1.24 
vt -0.0125 0.76 
vt 0.0125 1.24 
vt 0.0125 0.76 
vt -1.69494 1.24 
vt -1.69494 0.76 
vt -1.66994 1.24 
vt -1.66994 0.76 
vt -0.608016 1.24 
vt -0.608015 0.76 
vt -0.583016 1.24 
vt -0.583016 0.76 
vt -1.11949 1.24 
vt -1.11949 0.76 
vt -1.09449 1.24 
vt -1.09449 0.76 

usemtl Union9Mtl

f 257/257/257 258/258/258 260/260/260 
f 259/259/259 257/257/257 260/260/260 
f 261/261/261 262/262/262 264/264/264 
f 263/263/263 261/261/261 264/264/264 
f 265/265/265 266/266/266 268/268/268 
f 267/267/267 265/265/265 268/268/268 
f 269/269/269 270/270/270 272/272/272 
f 271/271/271 269/269/269 272/272/272 

g Union14

v 42.7545 3.11729 51.6481 
v 42.7551 8.16461 51.6487 
v 42.7547 4.90383 51.6483 
v 42.7549 6.43827 51.6485 
v 46.6645 3.19182 51.6481 
v 46.6645 3.11682 51.6481 
v 42.7545 3.19229 51.6481 
v 46.6651 8.23915 51.6487 
v 46.6651 8.16415 51.6487 
v 42.7551 8.23961 51.6487 
v 46.6647 4.97836 51.6483 
v 46.6647 4.90336 51.6483 
v 42.7547 4.97883 51.6483 
v 46.6649 6.5128 51.6485 
v 46.6649 6.4378 51.6485 
v 42.7549 6.51327 51.6485 

vn 0 0 -1 
vn 0 0 -1 
vn 0 0 -1 
vn 0 0 -1 
vn 0 0 -1 
vn 0 0 -1 
vn 0 0 -1 
vn 0 0 -1 
vn 0 0 -1 
vn 0 0 -1 
vn 0 0 -1 
vn 0 0 -1 
vn 0 0 -1 
vn 0 0 -1 
vn 0 0 -1 
vn 0 0 -1 

vt -0.651667 1.0125 
vt -0.651666 -0.669943 
vt -0.651666 0.416984 
vt -0.651666 -0.0944946 
vt 0.651667 0.9875 
vt 0.651667 1.0125 
vt -0.651667 0.9875 
vt 0.651668 -0.694943 
vt 0.651668 -0.669943 
vt -0.651666 -0.694943 
vt 0.651667 0.391985 
vt 0.651667 0.416985 
vt -0.651666 0.391985 
vt 0.651667 -0.119495 
vt 0.651667 -0.0944946 
vt -0.651666 -0.119494 

usemtl Union9Mtl

f 277/277/277 278/278/278 273/273/273 
f 279/279/279 277/277/277 273/273/273 
f 280/280/280 281/281/281 274/274/274 
f 282/282/282 280/280/280 274/274/274 
f 283/283/283 284/284/284 275/275/275 
f 285/285/285 283/283/283 275/275/275 
f 286/286/286 287/287/287 276/276/276 
f 288/288/288 286/286/286 276/276/276 

